<svg xmlns="http://www.w3.org/2000/svg" width="1900" height="1250" viewBox="0 0 1900 1250">
  <rect x="0" y="0" width="1900" height="1250" fill="#FFFFFF" />
  <text x="950" y="58" text-anchor="middle" font-family="SimSun" font-size="34" fill="#000000">智慧社区核心类图</text>
  <rect x="140" y="170" width="250" height="160" rx="0" ry="0" fill="#FFFFFF" stroke="#000000" stroke-width="2" />
  <line x1="140" y1="216" x2="390" y2="216" stroke="#000000" stroke-width="2" />
  <text x="265" y="200" text-anchor="middle" font-family="SimSun" font-size="20" fill="#000000">用户表</text>
  <text x="154" y="246" text-anchor="start" font-family="SimSun" font-size="16" fill="#000000">- id</text>
  <text x="154" y="270" text-anchor="start" font-family="SimSun" font-size="16" fill="#000000">- role</text>
  <text x="154" y="294" text-anchor="start" font-family="SimSun" font-size="16" fill="#000000">- nickname</text>
  <text x="154" y="318" text-anchor="start" font-family="SimSun" font-size="16" fill="#000000">- phone</text>
  <rect x="440" y="170" width="250" height="160" rx="0" ry="0" fill="#FFFFFF" stroke="#000000" stroke-width="2" />
  <line x1="440" y1="216" x2="690" y2="216" stroke="#000000" stroke-width="2" />
  <text x="565" y="200" text-anchor="middle" font-family="SimSun" font-size="20" fill="#000000">房产表</text>
  <text x="454" y="246" text-anchor="start" font-family="SimSun" font-size="16" fill="#000000">- id</text>
  <text x="454" y="270" text-anchor="start" font-family="SimSun" font-size="16" fill="#000000">- community</text>
  <text x="454" y="294" text-anchor="start" font-family="SimSun" font-size="16" fill="#000000">- building</text>
  <text x="454" y="318" text-anchor="start" font-family="SimSun" font-size="16" fill="#000000">- room</text>
  <rect x="740" y="170" width="250" height="136" rx="0" ry="0" fill="#FFFFFF" stroke="#000000" stroke-width="2" />
  <line x1="740" y1="216" x2="990" y2="216" stroke="#000000" stroke-width="2" />
  <text x="865" y="200" text-anchor="middle" font-family="SimSun" font-size="20" fill="#000000">用户房产关联表</text>
  <text x="754" y="246" text-anchor="start" font-family="SimSun" font-size="16" fill="#000000">- user_id</text>
  <text x="754" y="270" text-anchor="start" font-family="SimSun" font-size="16" fill="#000000">- property_id</text>
  <text x="754" y="294" text-anchor="start" font-family="SimSun" font-size="16" fill="#000000">- relation</text>
  <rect x="1080" y="170" width="250" height="184" rx="0" ry="0" fill="#FFFFFF" stroke="#000000" stroke-width="2" />
  <line x1="1080" y1="216" x2="1330" y2="216" stroke="#000000" stroke-width="2" />
  <text x="1205" y="200" text-anchor="middle" font-family="SimSun" font-size="20" fill="#000000">维修工单表</text>
  <text x="1094" y="246" text-anchor="start" font-family="SimSun" font-size="16" fill="#000000">- id</text>
  <text x="1094" y="270" text-anchor="start" font-family="SimSun" font-size="16" fill="#000000">- user_id</text>
  <text x="1094" y="294" text-anchor="start" font-family="SimSun" font-size="16" fill="#000000">- property_id</text>
  <text x="1094" y="318" text-anchor="start" font-family="SimSun" font-size="16" fill="#000000">- category</text>
  <text x="1094" y="342" text-anchor="start" font-family="SimSun" font-size="16" fill="#000000">- status</text>
  <rect x="1410" y="170" width="250" height="136" rx="0" ry="0" fill="#FFFFFF" stroke="#000000" stroke-width="2" />
  <line x1="1410" y1="216" x2="1660" y2="216" stroke="#000000" stroke-width="2" />
  <text x="1535" y="200" text-anchor="middle" font-family="SimSun" font-size="20" fill="#000000">维修派工表</text>
  <text x="1424" y="246" text-anchor="start" font-family="SimSun" font-size="16" fill="#000000">- order_id</text>
  <text x="1424" y="270" text-anchor="start" font-family="SimSun" font-size="16" fill="#000000">- worker_id</text>
  <text x="1424" y="294" text-anchor="start" font-family="SimSun" font-size="16" fill="#000000">- role_type</text>
  <rect x="120" y="650" width="250" height="160" rx="0" ry="0" fill="#FFFFFF" stroke="#000000" stroke-width="2" />
  <line x1="120" y1="696" x2="370" y2="696" stroke="#000000" stroke-width="2" />
  <text x="245" y="680" text-anchor="middle" font-family="SimSun" font-size="20" fill="#000000">停车订单表</text>
  <text x="134" y="726" text-anchor="start" font-family="SimSun" font-size="16" fill="#000000">- id</text>
  <text x="134" y="750" text-anchor="start" font-family="SimSun" font-size="16" fill="#000000">- user_id</text>
  <text x="134" y="774" text-anchor="start" font-family="SimSun" font-size="16" fill="#000000">- property_id</text>
  <text x="134" y="798" text-anchor="start" font-family="SimSun" font-size="16" fill="#000000">- vehicle_no</text>
  <rect x="470" y="650" width="250" height="160" rx="0" ry="0" fill="#FFFFFF" stroke="#000000" stroke-width="2" />
  <line x1="470" y1="696" x2="720" y2="696" stroke="#000000" stroke-width="2" />
  <text x="595" y="680" text-anchor="middle" font-family="SimSun" font-size="20" fill="#000000">访客邀请表</text>
  <text x="484" y="726" text-anchor="start" font-family="SimSun" font-size="16" fill="#000000">- id</text>
  <text x="484" y="750" text-anchor="start" font-family="SimSun" font-size="16" fill="#000000">- host_user_id</text>
  <text x="484" y="774" text-anchor="start" font-family="SimSun" font-size="16" fill="#000000">- visitor_name</text>
  <text x="484" y="798" text-anchor="start" font-family="SimSun" font-size="16" fill="#000000">- expire_time</text>
  <rect x="800" y="650" width="250" height="160" rx="0" ry="0" fill="#FFFFFF" stroke="#000000" stroke-width="2" />
  <line x1="800" y1="696" x2="1050" y2="696" stroke="#000000" stroke-width="2" />
  <text x="925" y="680" text-anchor="middle" font-family="SimSun" font-size="20" fill="#000000">访客通知表</text>
  <text x="814" y="726" text-anchor="start" font-family="SimSun" font-size="16" fill="#000000">- id</text>
  <text x="814" y="750" text-anchor="start" font-family="SimSun" font-size="16" fill="#000000">- host_user_id</text>
  <text x="814" y="774" text-anchor="start" font-family="SimSun" font-size="16" fill="#000000">- invite_id</text>
  <text x="814" y="798" text-anchor="start" font-family="SimSun" font-size="16" fill="#000000">- read_flag</text>
  <rect x="1130" y="650" width="250" height="160" rx="0" ry="0" fill="#FFFFFF" stroke="#000000" stroke-width="2" />
  <line x1="1130" y1="696" x2="1380" y2="696" stroke="#000000" stroke-width="2" />
  <text x="1255" y="680" text-anchor="middle" font-family="SimSun" font-size="20" fill="#000000">二手物品表</text>
  <text x="1144" y="726" text-anchor="start" font-family="SimSun" font-size="16" fill="#000000">- id</text>
  <text x="1144" y="750" text-anchor="start" font-family="SimSun" font-size="16" fill="#000000">- user_id</text>
  <text x="1144" y="774" text-anchor="start" font-family="SimSun" font-size="16" fill="#000000">- title</text>
  <text x="1144" y="798" text-anchor="start" font-family="SimSun" font-size="16" fill="#000000">- price</text>
  <rect x="1430" y="650" width="250" height="160" rx="0" ry="0" fill="#FFFFFF" stroke="#000000" stroke-width="2" />
  <line x1="1430" y1="696" x2="1680" y2="696" stroke="#000000" stroke-width="2" />
  <text x="1555" y="680" text-anchor="middle" font-family="SimSun" font-size="20" fill="#000000">失物招领表</text>
  <text x="1444" y="726" text-anchor="start" font-family="SimSun" font-size="16" fill="#000000">- id</text>
  <text x="1444" y="750" text-anchor="start" font-family="SimSun" font-size="16" fill="#000000">- user_id</text>
  <text x="1444" y="774" text-anchor="start" font-family="SimSun" font-size="16" fill="#000000">- title</text>
  <text x="1444" y="798" text-anchor="start" font-family="SimSun" font-size="16" fill="#000000">- type</text>
  <rect x="1730" y="650" width="250" height="160" rx="0" ry="0" fill="#FFFFFF" stroke="#000000" stroke-width="2" />
  <line x1="1730" y1="696" x2="1980" y2="696" stroke="#000000" stroke-width="2" />
  <text x="1855" y="680" text-anchor="middle" font-family="SimSun" font-size="20" fill="#000000">论坛帖子表</text>
  <text x="1744" y="726" text-anchor="start" font-family="SimSun" font-size="16" fill="#000000">- id</text>
  <text x="1744" y="750" text-anchor="start" font-family="SimSun" font-size="16" fill="#000000">- user_id</text>
  <text x="1744" y="774" text-anchor="start" font-family="SimSun" font-size="16" fill="#000000">- title</text>
  <text x="1744" y="798" text-anchor="start" font-family="SimSun" font-size="16" fill="#000000">- board</text>
  <rect x="1580" y="980" width="250" height="160" rx="0" ry="0" fill="#FFFFFF" stroke="#000000" stroke-width="2" />
  <line x1="1580" y1="1026" x2="1830" y2="1026" stroke="#000000" stroke-width="2" />
  <text x="1705" y="1010" text-anchor="middle" font-family="SimSun" font-size="20" fill="#000000">论坛评论表</text>
  <text x="1594" y="1056" text-anchor="start" font-family="SimSun" font-size="16" fill="#000000">- id</text>
  <text x="1594" y="1080" text-anchor="start" font-family="SimSun" font-size="16" fill="#000000">- post_id</text>
  <text x="1594" y="1104" text-anchor="start" font-family="SimSun" font-size="16" fill="#000000">- user_id</text>
  <text x="1594" y="1128" text-anchor="start" font-family="SimSun" font-size="16" fill="#000000">- parent_id</text>
  <polyline points="390,250 740,238" fill="none" stroke="#000000" stroke-width="2" />
  <text x="400" y="246" text-anchor="start" font-family="SimSun" font-size="14" fill="#000000">1</text>
  <text x="732" y="234" text-anchor="start" font-family="SimSun" font-size="14" fill="#000000">n</text>
  <polyline points="690,250 740,238" fill="none" stroke="#000000" stroke-width="2" />
  <text x="700" y="246" text-anchor="start" font-family="SimSun" font-size="14" fill="#000000">1</text>
  <text x="732" y="234" text-anchor="start" font-family="SimSun" font-size="14" fill="#000000">n</text>
  <polyline points="390,250 390,270 1080,270 1080,262" fill="none" stroke="#000000" stroke-width="2" />
  <text x="400" y="246" text-anchor="start" font-family="SimSun" font-size="14" fill="#000000">1</text>
  <text x="1072" y="258" text-anchor="start" font-family="SimSun" font-size="14" fill="#000000">n</text>
  <polyline points="690,250 690,320 1080,320 1080,262" fill="none" stroke="#000000" stroke-width="2" />
  <text x="700" y="246" text-anchor="start" font-family="SimSun" font-size="14" fill="#000000">1</text>
  <text x="1072" y="258" text-anchor="start" font-family="SimSun" font-size="14" fill="#000000">n</text>
  <polyline points="1330,262 1410,238" fill="none" stroke="#000000" stroke-width="2" />
  <text x="1340" y="258" text-anchor="start" font-family="SimSun" font-size="14" fill="#000000">1</text>
  <text x="1402" y="234" text-anchor="start" font-family="SimSun" font-size="14" fill="#000000">n</text>
  <polyline points="265,330 265,530 245,530 245,650 245,650" fill="none" stroke="#000000" stroke-width="2" />
  <text x="275" y="326" text-anchor="start" font-family="SimSun" font-size="14" fill="#000000">1</text>
  <text x="237" y="646" text-anchor="start" font-family="SimSun" font-size="14" fill="#000000">n</text>
  <polyline points="265,330 285,580 595,580 595,650 595,650" fill="none" stroke="#000000" stroke-width="2" />
  <text x="275" y="326" text-anchor="start" font-family="SimSun" font-size="14" fill="#000000">1</text>
  <text x="587" y="646" text-anchor="start" font-family="SimSun" font-size="14" fill="#000000">n</text>
  <polyline points="720,730 800,730" fill="none" stroke="#000000" stroke-width="2" />
  <text x="730" y="726" text-anchor="start" font-family="SimSun" font-size="14" fill="#000000">1</text>
  <text x="792" y="726" text-anchor="start" font-family="SimSun" font-size="14" fill="#000000">n</text>
  <polyline points="265,330 315,630 1255,630 1255,650 1255,650" fill="none" stroke="#000000" stroke-width="2" />
  <text x="275" y="326" text-anchor="start" font-family="SimSun" font-size="14" fill="#000000">1</text>
  <text x="1247" y="646" text-anchor="start" font-family="SimSun" font-size="14" fill="#000000">n</text>
  <polyline points="265,330 335,680 1555,680 1555,650 1555,650" fill="none" stroke="#000000" stroke-width="2" />
  <text x="275" y="326" text-anchor="start" font-family="SimSun" font-size="14" fill="#000000">1</text>
  <text x="1547" y="646" text-anchor="start" font-family="SimSun" font-size="14" fill="#000000">n</text>
  <polyline points="265,330 355,730 1730,730 1730,730" fill="none" stroke="#000000" stroke-width="2" />
  <text x="275" y="326" text-anchor="start" font-family="SimSun" font-size="14" fill="#000000">1</text>
  <text x="1722" y="726" text-anchor="start" font-family="SimSun" font-size="14" fill="#000000">n</text>
  <polyline points="1855,810 1705,980" fill="none" stroke="#000000" stroke-width="2" />
  <text x="1865" y="806" text-anchor="start" font-family="SimSun" font-size="14" fill="#000000">1</text>
  <text x="1697" y="976" text-anchor="start" font-family="SimSun" font-size="14" fill="#000000">n</text>
</svg>
